<svg xmlns="http://www.w3.org/2000/svg" width="18" height="18" viewBox="0 0 18 18">
  <g id="SVGRepo_iconCarrier" transform="translate(0.5 0.5)">
    <path id="Path_109" data-name="Path 109" d="M2.441,6.949C2,7.756,2,8.728,2,10.673v1.293c0,3.316,0,4.974,1,6S5.594,19,8.8,19h3.4c3.206,0,4.808,0,5.8-1.03s1-2.688,1-6V10.673c0-1.945,0-2.918-.441-3.724S17.311,5.643,15.7,4.642L14,3.587C12.294,2.529,11.442,2,10.5,2S8.706,2.529,7,3.587L5.3,4.642C3.689,5.643,2.883,6.143,2.441,6.949ZM7.95,14.963a.638.638,0,0,0,0,1.275h5.1a.638.638,0,0,0,0-1.275Z" transform="translate(-2 -2)" fill="none" stroke="#757575" stroke-width="1" fill-rule="evenodd"/>
  </g>
</svg>
