<svg xmlns="http://www.w3.org/2000/svg" width="19.103" height="19.103" viewBox="0 0 19.103 19.103">
  <g id="SVGRepo_iconCarrier" transform="translate(0.5 0.603)">
    <path id="Path_30" data-name="Path 30" d="M17.647,19.031l-1.781-8.115L19.33,7.452C20.814,5.967,21.309,3.988,20.814,3c-.99-.495-2.969,0-4.454,1.485L12.9,7.947,4.781,6.165a.938.938,0,0,0-1.089.495l-.3.495a1.049,1.049,0,0,0,.3,1.287l5.245,3.464L6.959,14.874H3.99l-.99.99,2.969,1.979,1.979,2.969.99-.99V16.854l2.969-1.979,3.464,5.245a1.049,1.049,0,0,0,1.287.3l.495-.2a1.135,1.135,0,0,0,.495-1.188Z" transform="translate(-3 -2.813)" fill="none" stroke="#757575" stroke-linecap="round" stroke-linejoin="round" stroke-width="1"/>
  </g>
</svg>
